<svg xmlns="http://www.w3.org/2000/svg" viewBox="0 0 32 32" width="32" height="32">
  <defs>
    <linearGradient id="grad1" x1="0%" y1="0%" x2="100%" y2="100%">
      <stop offset="0%" style="stop-color:#3B82F6;stop-opacity:1" />
      <stop offset="100%" style="stop-color:#1D4ED8;stop-opacity:1" />
    </linearGradient>
  </defs>
  
  <!-- Background circle -->
  <circle cx="16" cy="16" r="15" fill="url(#grad1)" stroke="#1E40AF" stroke-width="1"/>
  
  <!-- T-shirt outline -->
  <path d="M8 12 L8 24 L24 24 L24 12 L22 10 L20 12 L18 10 L16 12 L14 10 L12 12 L10 10 Z" 
        fill="white" stroke="#1E40AF" stroke-width="0.5"/>
  
  <!-- T-shirt collar -->
  <path d="M10 10 L14 8 L16 8 L18 8 L22 10" 
        fill="none" stroke="#1E40AF" stroke-width="1" stroke-linecap="round"/>
  
  <!-- T-shirt sleeves -->
  <path d="M8 12 L6 14 L6 18 L8 20" 
        fill="none" stroke="#1E40AF" stroke-width="1" stroke-linecap="round"/>
  <path d="M24 12 L26 14 L26 18 L24 20" 
        fill="none" stroke="#1E40AF" stroke-width="1" stroke-linecap="round"/>
  
  <!-- Print design on shirt -->
  <circle cx="16" cy="18" r="2" fill="#3B82F6" opacity="0.8"/>
  <path d="M14 18 L18 18 M16 16 L16 20" 
        stroke="white" stroke-width="0.8" stroke-linecap="round"/>
  
  <!-- Small dots for texture -->
  <circle cx="12" cy="16" r="0.3" fill="#3B82F6" opacity="0.6"/>
  <circle cx="20" cy="16" r="0.3" fill="#3B82F6" opacity="0.6"/>
  <circle cx="14" cy="22" r="0.3" fill="#3B82F6" opacity="0.6"/>
  <circle cx="18" cy="22" r="0.3" fill="#3B82F6" opacity="0.6"/>
</svg> 